<svg width="255" height="44" viewBox="0 0 255 44" fill="none" xmlns="http://www.w3.org/2000/svg">
<path d="M19.0426 0.104303C16.6439 0.416326 14.4207 1.05987 12.217 2.13245C5.68406 5.27219 1.06222 11.6492 0.145654 18.7867C-0.068862 20.4053 -0.0493606 20.6003 0.22366 20.8733L0.457677 21.1074H21.1292L21.3242 20.8928C21.5582 20.6393 29.1443 2.36647 29.2223 1.91794C29.2808 1.3914 28.9688 1.15738 27.6622 0.786853C25.712 0.240813 24.3664 0.0457985 22.1433 0.00679565C20.7587 -0.0127058 19.7836 0.00679565 19.0426 0.104303ZM20.8562 13.3848C20.8952 13.2093 18.8085 14.5549 20.8562 13.3848C20.8367 13.5018 20.1736 6.96881 19.9201 7.53436C12.5291 7.53436 13.1726 11.7077 13.1726 11.6102C13.1726 10.7716 19.3741 14.4964 19.9201 13.1508C22.7088 5.99374 8.72851 13.5213 16.3341 12.7217C17.6407 12.6047 19.5106 13.1508 20.8562 13.3848Z" fill="black"/>
<path d="M12.6266 11.8247C12.1195 12.3122 12.4511 13.1313 13.1531 13.1313C13.5626 13.1313 13.9332 12.7607 13.9332 12.3707C13.9332 11.9807 13.5626 11.6102 13.1726 11.6102C12.9776 11.5907 12.7631 11.6882 12.6266 11.8247Z" fill="black"/>
<path d="M15.1423 11.8052C14.6157 12.2147 20.1736 13.3848 20.8562 13.3848C21.6362 13.3848 16.6829 12.2147 16.0588 11.7467C15.8248 11.5322 15.4153 11.5712 15.1423 11.8052Z" fill="black"/>
<path d="M33.0836 0.708848C32.8496 0.923364 25.556 18.4747 25.556 18.8452C25.556 18.9817 25.6535 19.1962 25.7901 19.3327L26.0241 19.5667H35.6773C42.5613 19.5667 45.4085 19.5472 45.5645 19.4692C46.0131 19.2742 46.0716 19.0207 45.9351 17.8311C45.1745 10.7521 41.0987 4.62864 34.8192 1.07938C33.8052 0.494332 33.4151 0.416326 33.0836 0.708848ZM35.6773 3.43905C39.6361 6.09125 31.855 -0.90977 33.0836 3.73157C33.3761 4.80415 30.2169 8.21691 31.4065 8.60834C31.387 8.62784 19.0426 23.8181 35.9308 18.0261L27.5062 18.0066L33.9807 2.40547L34.4292 2.65899C34.6437 2.7565 35.2093 3.12703 35.6773 3.43905Z" fill="black"/>
<path d="M35.7358 11.8637C35.4238 12.1757 35.4043 12.3512 35.5993 12.7217C35.7553 13.0338 35.9113 13.1118 36.3013 13.1118C36.9449 13.1118 37.2374 12.1757 36.7304 11.7662C36.3988 11.5126 36.0673 11.5517 35.7358 11.8637Z" fill="black"/>
<path d="M0.418674 22.2774C0.00914386 22.5115 -0.029859 22.648 0.0286453 23.545C0.340668 28.2839 2.58333 33.1788 6.07409 36.767C7.94623 38.6782 9.85737 40.0628 12.1975 41.1939C14.3817 42.2469 16.2343 42.8125 18.6915 43.183C20.1346 43.3975 23.2159 43.3975 24.659 43.183C27.1747 42.793 29.2613 42.1494 31.4065 41.0573C38.0565 37.7031 42.5223 31.2286 43.2633 23.8571C43.3609 22.7455 43.3414 22.57 42.9513 22.3165C42.7563 22.1799 40.5526 22.1604 21.6752 22.1604C6.01559 22.1799 0.555184 22.1994 0.418674 22.2774ZM41.6447 24.2081C40.8647 29.727 38.0175 34.5829 33.6881 37.8201C30.9189 39.8873 30.0219 37.5471 26.5116 38.0541C25.1465 38.2491 25.1075 39.9068 23.6839 39.7117C20.2516 39.2242 32.128 42.988 29.3393 40.8818C28.3642 40.1603 37.8029 36.6695 37.0424 35.7139C34.7412 32.8667 36.9644 39.5167 36.4573 35.8115L40.7477 30.351L41.6837 23.8181L41.6447 24.2081Z" fill="black"/>
<path d="M18.9255 31.6576C18.8085 31.7551 18.6915 31.9892 18.672 32.1842C18.555 32.8667 19.3546 33.2763 19.9201 32.8277C20.4662 32.3987 20.1151 31.4821 19.3936 31.4821C19.2571 31.5016 19.0426 31.5796 18.9255 31.6576Z" fill="black"/>
<path d="M21.3827 31.7356C20.8952 32.2037 21.2462 33.0422 21.9093 33.0422C22.0848 33.0422 22.2993 32.9642 22.4358 32.8082C22.5918 32.6717 22.6698 32.4572 22.6698 32.2817C22.6698 32.1062 22.5918 31.8917 22.4358 31.7551C22.2993 31.5991 22.0848 31.5211 21.9093 31.5211C21.7338 31.5211 21.5192 31.5796 21.3827 31.7356Z" fill="black"/>
<path d="M23.8789 31.7356C23.3914 32.2037 23.7424 33.0422 24.4055 33.0422C24.7955 33.0422 25.166 32.6717 25.166 32.2817C25.166 31.8917 24.7955 31.5211 24.4055 31.5211C24.2104 31.5016 24.0154 31.5796 23.8789 31.7356Z" fill="black"/>
<path d="M57.8963 30V8.18182H72.598V11.9851H62.5092V17.1839H71.8416V20.9872H62.5092V26.1967H72.6406V30H57.8963ZM79.9728 13.6364L82.9771 19.3572L86.0559 13.6364H90.7115L85.9707 21.8182L90.8393 30H86.2051L82.9771 24.343L79.8024 30H75.1149L79.9728 21.8182L75.2853 13.6364H79.9728ZM93.4068 36.1364V13.6364H97.8812V16.3849H98.0836C98.2825 15.9446 98.5701 15.4972 98.9466 15.0426C99.3301 14.581 99.8272 14.1974 100.438 13.892C101.056 13.5795 101.823 13.4233 102.739 13.4233C103.932 13.4233 105.033 13.7358 106.042 14.3608C107.05 14.9787 107.856 15.9126 108.46 17.1626C109.064 18.4055 109.366 19.9645 109.366 21.8395C109.366 23.6648 109.071 25.206 108.481 26.4631C107.899 27.7131 107.104 28.6612 106.095 29.3075C105.094 29.9467 103.971 30.2663 102.729 30.2663C101.848 30.2663 101.099 30.1207 100.481 29.8295C99.8699 29.5384 99.3691 29.1726 98.9785 28.7322C98.5879 28.2848 98.2896 27.8338 98.0836 27.3793H97.9451V36.1364H93.4068ZM97.8493 21.8182C97.8493 22.7912 97.9842 23.6399 98.2541 24.3643C98.524 25.0888 98.9146 25.6534 99.426 26.0582C99.9373 26.456 100.559 26.6548 101.29 26.6548C102.029 26.6548 102.654 26.4524 103.165 26.0476C103.677 25.6357 104.064 25.0675 104.327 24.343C104.596 23.6115 104.731 22.7699 104.731 21.8182C104.731 20.8736 104.6 20.0426 104.337 19.3253C104.074 18.608 103.687 18.0469 103.176 17.642C102.665 17.2372 102.036 17.0348 101.29 17.0348C100.552 17.0348 99.9267 17.2301 99.4153 17.6207C98.911 18.0114 98.524 18.5653 98.2541 19.2827C97.9842 20 97.8493 20.8452 97.8493 21.8182ZM119.849 30.3196C118.165 30.3196 116.716 29.9787 115.502 29.2969C114.295 28.608 113.364 27.6349 112.711 26.3778C112.057 25.1136 111.731 23.6186 111.731 21.8928C111.731 20.2095 112.057 18.7322 112.711 17.4609C113.364 16.1896 114.284 15.1989 115.47 14.4886C116.663 13.7784 118.062 13.4233 119.667 13.4233C120.747 13.4233 121.752 13.5973 122.682 13.9453C123.62 14.2862 124.437 14.8011 125.133 15.4901C125.836 16.179 126.383 17.0455 126.773 18.0895C127.164 19.1264 127.359 20.3409 127.359 21.733V22.9794H113.542V20.1669H123.087C123.087 19.5135 122.945 18.9347 122.661 18.4304C122.377 17.9261 121.983 17.532 121.479 17.2479C120.981 16.9567 120.403 16.8111 119.742 16.8111C119.053 16.8111 118.442 16.9709 117.91 17.2905C117.384 17.603 116.972 18.0256 116.674 18.5582C116.376 19.0838 116.223 19.6697 116.216 20.3161V22.9901C116.216 23.7997 116.365 24.4993 116.663 25.0888C116.969 25.6783 117.398 26.1328 117.952 26.4524C118.506 26.772 119.163 26.9318 119.923 26.9318C120.427 26.9318 120.889 26.8608 121.308 26.7188C121.727 26.5767 122.086 26.3636 122.384 26.0795C122.682 25.7955 122.91 25.4474 123.066 25.0355L127.263 25.3125C127.05 26.321 126.613 27.2017 125.953 27.9545C125.3 28.7003 124.454 29.2827 123.417 29.7017C122.388 30.1136 121.198 30.3196 119.849 30.3196ZM134.859 20.5398V30H130.321V13.6364H134.646V16.5234H134.838C135.2 15.5717 135.807 14.8189 136.66 14.2649C137.512 13.7038 138.545 13.4233 139.76 13.4233C140.896 13.4233 141.887 13.6719 142.732 14.169C143.577 14.6662 144.234 15.3764 144.703 16.2997C145.172 17.2159 145.406 18.3097 145.406 19.581V30H140.868V20.3906C140.875 19.3892 140.619 18.608 140.101 18.0469C139.582 17.4787 138.868 17.1946 137.959 17.1946C137.349 17.1946 136.809 17.326 136.34 17.5888C135.878 17.8516 135.516 18.2351 135.253 18.7393C134.998 19.2365 134.866 19.8366 134.859 20.5398ZM162.598 18.3026L158.443 18.5582C158.372 18.2031 158.219 17.8835 157.985 17.5994C157.751 17.3082 157.442 17.0774 157.058 16.907C156.682 16.7294 156.231 16.6406 155.705 16.6406C155.002 16.6406 154.409 16.7898 153.926 17.0881C153.443 17.3793 153.202 17.7699 153.202 18.2599C153.202 18.6506 153.358 18.9808 153.67 19.2507C153.983 19.5206 154.519 19.7372 155.279 19.9006L158.241 20.4972C159.832 20.8239 161.018 21.3494 161.799 22.0739C162.58 22.7983 162.971 23.75 162.971 24.929C162.971 26.0014 162.655 26.9425 162.023 27.7521C161.398 28.5618 160.538 29.1939 159.445 29.6484C158.358 30.0959 157.104 30.3196 155.684 30.3196C153.518 30.3196 151.792 29.8686 150.506 28.9666C149.228 28.0575 148.479 26.8217 148.259 25.2592L152.722 25.0249C152.857 25.6854 153.184 26.1896 153.702 26.5376C154.221 26.8786 154.885 27.049 155.695 27.049C156.49 27.049 157.129 26.8963 157.612 26.5909C158.102 26.2784 158.351 25.8771 158.358 25.3871C158.351 24.9751 158.177 24.6378 157.836 24.375C157.495 24.1051 156.969 23.8991 156.259 23.7571L153.425 23.1925C151.827 22.8729 150.638 22.3189 149.857 21.5305C149.082 20.7422 148.695 19.7372 148.695 18.5156C148.695 17.4645 148.979 16.5589 149.548 15.799C150.123 15.0391 150.929 14.4531 151.966 14.0412C153.01 13.6293 154.232 13.4233 155.631 13.4233C157.697 13.4233 159.324 13.8601 160.51 14.7337C161.703 15.6072 162.399 16.7969 162.598 18.3026ZM173.286 30.3196C171.603 30.3196 170.154 29.9787 168.939 29.2969C167.732 28.608 166.802 27.6349 166.148 26.3778C165.495 25.1136 165.168 23.6186 165.168 21.8928C165.168 20.2095 165.495 18.7322 166.148 17.4609C166.802 16.1896 167.721 15.1989 168.907 14.4886C170.101 13.7784 171.5 13.4233 173.105 13.4233C174.184 13.4233 175.189 13.5973 176.12 13.9453C177.057 14.2862 177.874 14.8011 178.57 15.4901C179.273 16.179 179.82 17.0455 180.211 18.0895C180.601 19.1264 180.797 20.3409 180.797 21.733V22.9794H166.979V20.1669H176.525C176.525 19.5135 176.383 18.9347 176.099 18.4304C175.814 17.9261 175.42 17.532 174.916 17.2479C174.419 16.9567 173.84 16.8111 173.18 16.8111C172.491 16.8111 171.88 16.9709 171.347 17.2905C170.822 17.603 170.41 18.0256 170.111 18.5582C169.813 19.0838 169.66 19.6697 169.653 20.3161V22.9901C169.653 23.7997 169.802 24.4993 170.101 25.0888C170.406 25.6783 170.836 26.1328 171.39 26.4524C171.944 26.772 172.601 26.9318 173.361 26.9318C173.865 26.9318 174.327 26.8608 174.746 26.7188C175.165 26.5767 175.523 26.3636 175.822 26.0795C176.12 25.7955 176.347 25.4474 176.503 25.0355L180.701 25.3125C180.488 26.321 180.051 27.2017 179.39 27.9545C178.737 28.7003 177.892 29.2827 176.855 29.7017C175.825 30.1136 174.635 30.3196 173.286 30.3196ZM183.844 30V8.18182H198.29V11.9851H188.456V17.1839H197.331V20.9872H188.456V30H183.844ZM205.846 8.18182V30H201.307V8.18182H205.846ZM216.874 30.3196C215.22 30.3196 213.789 29.968 212.581 29.2649C211.381 28.5547 210.454 27.5675 209.801 26.3033C209.147 25.032 208.82 23.5582 208.82 21.8821C208.82 20.1918 209.147 18.7145 209.801 17.4503C210.454 16.179 211.381 15.1918 212.581 14.4886C213.789 13.7784 215.22 13.4233 216.874 13.4233C218.529 13.4233 219.957 13.7784 221.157 14.4886C222.365 15.1918 223.295 16.179 223.948 17.4503C224.602 18.7145 224.928 20.1918 224.928 21.8821C224.928 23.5582 224.602 25.032 223.948 26.3033C223.295 27.5675 222.365 28.5547 221.157 29.2649C219.957 29.968 218.529 30.3196 216.874 30.3196ZM216.896 26.804C217.649 26.804 218.277 26.5909 218.781 26.1648C219.286 25.7315 219.666 25.142 219.921 24.3963C220.184 23.6506 220.316 22.8018 220.316 21.8501C220.316 20.8984 220.184 20.0497 219.921 19.304C219.666 18.5582 219.286 17.9687 218.781 17.5355C218.277 17.1023 217.649 16.8857 216.896 16.8857C216.136 16.8857 215.497 17.1023 214.978 17.5355C214.467 17.9687 214.08 18.5582 213.817 19.304C213.561 20.0497 213.433 20.8984 213.433 21.8501C213.433 22.8018 213.561 23.6506 213.817 24.3963C214.08 25.142 214.467 25.7315 214.978 26.1648C215.497 26.5909 216.136 26.804 216.896 26.804ZM230.697 30L226.244 13.6364H230.836L233.371 24.6307H233.52L236.162 13.6364H240.669L243.354 24.5668H243.492L245.985 13.6364H250.566L246.123 30H241.319L238.506 19.7088H238.304L235.491 30H230.697Z" fill="black"/>
</svg>
